<svg width="600" height="600" viewBox="0 0 600 600" fill="none" xmlns="http://www.w3.org/2000/svg">
<rect width="600" height="600" fill="#C4C4C4"/>
<path d="M300.001 126.562C240.47 126.562 192.189 174.844 192.189 234.375C192.189 293.906 240.47 342.188 300.001 342.188C359.532 342.188 407.814 293.906 407.814 234.375C407.814 174.844 359.532 126.562 300.001 126.562ZM300.001 154.688C344.064 154.688 379.689 190.313 379.689 234.375C379.689 278.437 344.064 314.062 300.001 314.062C255.939 314.062 220.314 278.437 220.314 234.375C220.314 190.313 255.939 154.688 300.001 154.688ZM300.001 379.688C223.126 379.688 151.88 421.404 113.911 487.967C110.161 494.529 112.501 503.434 119.532 507.184C121.876 508.59 124.22 509.061 126.564 509.061C131.251 509.061 136.405 506.717 138.749 502.029C171.562 443.904 233.439 407.812 300.001 407.812C366.564 407.812 428.439 443.904 461.72 502.029C465.47 508.592 473.906 510.934 480.937 507.184C487.499 503.434 489.841 494.998 486.091 487.967C448.122 421.404 376.876 379.688 300.001 379.688Z" fill="white"/>
</svg>
