<?xml version="1.0" encoding="UTF-8"?>
<svg xmlns="http://www.w3.org/2000/svg" xmlns:xlink="http://www.w3.org/1999/xlink" width="132px" height="36px" viewBox="0 0 131 36" version="1.1">
<g id="surface1">
<path style=" stroke:none;fill-rule:nonzero;fill:rgb(44.705883%,53.725493%,85.490197%);fill-opacity:1;" d="M 19.113281 15.117188 C 18.09375 15.117188 17.265625 16.007812 17.265625 17.109375 C 17.265625 18.210938 18.09375 19.105469 19.113281 19.105469 C 20.132812 19.105469 20.960938 18.210938 20.960938 17.109375 C 20.960938 16.007812 20.132812 15.117188 19.113281 15.117188 Z M 19.113281 15.117188 "/>
<path style=" stroke:none;fill-rule:nonzero;fill:rgb(44.705883%,53.725493%,85.490197%);fill-opacity:1;" d="M 12.535156 15.117188 C 11.511719 15.117188 10.683594 16.007812 10.683594 17.109375 C 10.683594 18.210938 11.511719 19.105469 12.535156 19.105469 C 13.554688 19.105469 14.382812 18.210938 14.382812 17.109375 C 14.382812 16.007812 13.554688 15.117188 12.535156 15.117188 Z M 12.535156 15.117188 "/>
<path style=" stroke:none;fill-rule:nonzero;fill:rgb(44.705883%,53.725493%,85.490197%);fill-opacity:1;" d="M 27.890625 0 L 3.695312 0 C 1.652344 0 0 1.664062 0 3.71875 L 0 28.078125 C 0 30.132812 1.652344 31.796875 3.695312 31.796875 L 24.167969 31.796875 L 23.210938 28.46875 L 25.515625 30.609375 L 27.695312 32.628906 L 31.585938 36.03125 L 31.585938 3.71875 C 31.585938 1.664062 29.933594 0 27.890625 0 Z M 20.921875 23.53125 C 20.921875 23.53125 20.277344 22.753906 19.738281 22.070312 C 22.109375 21.40625 23.003906 19.925781 23.003906 19.925781 C 22.257812 20.414062 21.554688 20.753906 20.921875 20.996094 C 20.019531 21.371094 19.144531 21.621094 18.296875 21.777344 C 16.570312 22.097656 14.980469 22.019531 13.621094 21.765625 C 12.59375 21.574219 11.699219 21.285156 10.96875 20.992188 C 10.554688 20.832031 10.109375 20.628906 9.644531 20.371094 C 9.585938 20.339844 9.527344 20.308594 9.476562 20.277344 C 9.449219 20.265625 9.421875 20.25 9.398438 20.234375 C 9.074219 20.050781 8.898438 19.925781 8.898438 19.925781 C 8.898438 19.925781 9.765625 21.367188 12.0625 22.042969 C 11.519531 22.734375 10.855469 23.53125 10.855469 23.53125 C 6.871094 23.410156 5.347656 20.785156 5.347656 20.785156 C 5.347656 14.988281 7.945312 10.285156 7.945312 10.285156 C 10.542969 8.332031 13.007812 8.394531 13.007812 8.394531 L 13.195312 8.609375 C 9.9375 9.539062 8.453125 10.976562 8.453125 10.976562 C 8.453125 10.976562 8.84375 10.75 9.527344 10.460938 C 11.464844 9.609375 12.992188 9.382812 13.625 9.320312 C 13.726562 9.304688 13.824219 9.292969 13.925781 9.277344 C 15.035156 9.136719 16.269531 9.097656 17.578125 9.246094 C 19.292969 9.4375 21.140625 9.953125 23.015625 10.976562 C 23.015625 10.976562 21.597656 9.617188 18.519531 8.683594 L 18.769531 8.394531 C 18.769531 8.394531 21.234375 8.332031 23.835938 10.285156 C 23.835938 10.285156 26.433594 14.988281 26.433594 20.785156 C 26.433594 20.785156 24.910156 23.410156 20.921875 23.53125 Z M 20.921875 23.53125 "/>
<path style=" stroke:none;fill-rule:nonzero;fill:rgb(44.705883%,53.725493%,85.490197%);fill-opacity:1;" d="M 48.179688 7.785156 L 42.179688 7.785156 L 42.179688 14.566406 L 46.175781 18.171875 L 46.175781 11.589844 L 48.316406 11.589844 C 49.671875 11.589844 50.332031 12.25 50.332031 13.300781 L 50.332031 18.335938 C 50.332031 19.382812 49.695312 20.089844 48.316406 20.089844 L 42.179688 20.089844 L 42.179688 23.917969 L 48.179688 23.917969 C 51.394531 23.941406 54.40625 22.324219 54.40625 18.609375 L 54.40625 13.1875 C 54.40625 9.425781 51.394531 7.785156 48.179688 7.785156 Z M 79.605469 18.632812 L 79.605469 13.074219 C 79.605469 11.066406 83.179688 10.609375 84.265625 12.617188 L 87.574219 11.273438 C 86.28125 8.402344 83.90625 7.558594 81.9375 7.558594 C 78.722656 7.558594 75.550781 9.425781 75.550781 13.074219 L 75.550781 18.632812 C 75.550781 22.300781 78.722656 24.148438 81.867188 24.148438 C 83.882812 24.148438 86.304688 23.144531 87.640625 20.523438 L 84.109375 18.882812 C 83.226562 21.117188 79.605469 20.570312 79.605469 18.632812 Z M 68.667969 13.824219 C 67.421875 13.550781 66.585938 13.09375 66.539062 12.320312 C 66.609375 10.453125 69.484375 10.382812 71.160156 12.183594 L 73.808594 10.132812 C 72.15625 8.105469 70.277344 7.558594 68.328125 7.558594 C 65.386719 7.558594 62.535156 9.222656 62.535156 12.386719 C 62.535156 15.464844 64.886719 17.105469 67.46875 17.515625 C 68.78125 17.699219 70.253906 18.222656 70.207031 19.132812 C 70.09375 20.867188 66.5625 20.773438 64.957031 18.816406 L 62.398438 21.230469 C 63.890625 23.167969 65.929688 24.148438 67.855469 24.148438 C 70.796875 24.148438 74.054688 22.4375 74.191406 19.316406 C 74.375 15.351562 71.519531 14.347656 68.667969 13.824219 Z M 56.578125 23.917969 L 60.632812 23.917969 L 60.632812 7.785156 L 56.578125 7.785156 Z M 124.773438 7.785156 L 118.777344 7.785156 L 118.777344 14.566406 L 122.773438 18.171875 L 122.773438 11.589844 L 124.910156 11.589844 C 126.269531 11.589844 126.925781 12.25 126.925781 13.300781 L 126.925781 18.335938 C 126.925781 19.382812 126.292969 20.089844 124.910156 20.089844 L 118.777344 20.089844 L 118.777344 23.917969 L 124.773438 23.917969 C 127.988281 23.941406 131 22.324219 131 18.609375 L 131 13.1875 C 131 9.425781 127.988281 7.785156 124.773438 7.785156 Z M 95.363281 7.558594 C 92.03125 7.558594 88.726562 9.378906 88.726562 13.09375 L 88.726562 18.609375 C 88.726562 22.300781 92.054688 24.148438 95.382812 24.148438 C 98.710938 24.148438 102.015625 22.300781 102.015625 18.609375 L 102.015625 13.09375 C 102.015625 9.402344 98.6875 7.558594 95.363281 7.558594 Z M 97.964844 18.609375 C 97.964844 19.773438 96.671875 20.363281 95.382812 20.363281 C 94.09375 20.363281 92.78125 19.792969 92.78125 18.609375 L 92.78125 13.09375 C 92.78125 11.910156 94.046875 11.273438 95.316406 11.273438 C 96.628906 11.273438 97.964844 11.839844 97.964844 13.09375 Z M 116.527344 13.09375 C 116.4375 9.3125 113.878906 7.785156 110.574219 7.785156 L 104.167969 7.785156 L 104.167969 23.917969 L 108.265625 23.917969 L 108.265625 18.792969 L 108.988281 18.792969 L 112.703125 23.917969 L 117.75 23.917969 L 113.382812 18.382812 C 115.328125 17.765625 116.527344 16.082031 116.527344 13.09375 Z M 110.640625 15.28125 L 108.265625 15.28125 L 108.265625 11.589844 L 110.640625 11.589844 C 113.199219 11.589844 113.199219 15.28125 110.640625 15.28125 Z M 110.640625 15.28125 "/>
</g>
</svg>
