<?xml version="1.0" encoding="utf-8"?>
<!-- Generator: Adobe Illustrator 22.0.1, SVG Export Plug-In . SVG Version: 6.00 Build 0)  -->
<svg version="1.1" id="Layer_1" xmlns="http://www.w3.org/2000/svg" xmlns:xlink="http://www.w3.org/1999/xlink" x="0px" y="0px"
	 width="1000px" height="273.2349548px" viewBox="0 0 1000 273.2349548" enable-background="new 0 0 1000 273.2349548"
	 xml:space="preserve">
<g>
	<g>
		<path fill="#7289DA" d="M145.9010925,114.6319504c-7.7884064,0-14.1004181,6.7707977-14.1004181,15.1203995
			c0,8.3549652,6.3120117,15.1245117,14.1004181,15.1245117c7.7991638,0,14.1110382-6.7695465,14.1110382-15.1245117
			C160.0121307,121.4027481,153.7002563,114.6319504,145.9010925,114.6319504z"/>
		<path fill="#7289DA" d="M95.6797791,114.6319504c-7.7991638,0-14.1111755,6.7707977-14.1111755,15.1203995
			c0,8.3549652,6.3120117,15.1245117,14.1111755,15.1245117c7.7882767,0,14.100296-6.7695465,14.100296-15.1245117
			C109.7800751,121.4027481,103.4680557,114.6319504,95.6797791,114.6319504z"/>
		<path fill="#7289DA" d="M212.917099,0H28.2007217C12.6240292,0,0,12.6240292,0,28.2007217v184.7164001
			c0,15.576828,12.6240292,28.2007141,28.2007217,28.2007141h156.2950134l-7.3092346-25.2317963l17.6035156,16.2322693
			l16.6170502,15.316925l29.7107544,25.7997284v-60.3178406v-13.7140045V28.2007217
			C241.1178284,12.6240292,228.4937897,0,212.917099,0z M159.7161102,178.4596405c0,0-4.91362-5.9054718-9.0332794-11.0829926
			c18.0988312-5.0333862,24.9168854-16.264389,24.9168854-16.264389c-5.6955719,3.7009888-11.0601196,6.278244-15.8943481,8.1073151
			c-6.8745728,2.831665-13.5715027,4.7373505-20.0287781,5.9203491c-13.1852036,2.430481-25.3260574,1.8396759-35.7132263-0.0753784
			c-7.8327942-1.4495392-14.6616135-3.6472473-20.2252884-5.8773499c-3.1613159-1.2005005-6.5541534-2.7481537-10.1233978-4.703598
			c-0.4521713-0.2436523-0.8814621-0.475174-1.2785034-0.6999512c-0.2086487-0.1156311-0.4064102-0.2206421-0.60569-0.3417816
			c-2.4574966-1.3996429-3.8006287-2.3296051-3.8006287-2.3296051s6.6215439,10.9161072,24.1470566,16.0558777
			c-4.1532974,5.221756-9.1960449,11.2915039-9.1960449,11.2915039
			c-30.4388161-0.9259796-42.0723763-20.8322296-42.0723763-20.8322296c0-43.9699402,19.829628-79.6178513,19.829628-79.6178513
			C80.4892502,63.1987,99.2932587,63.6676826,99.2932587,63.6676826l1.4212799,1.6076012
			c-24.8630066,7.07164-36.1761475,17.9554977-36.1761475,17.9554977s2.9635468-1.7011795,8.1827011-3.904274
			c14.7961121-6.4445877,26.4511719-8.1800766,31.2746582-8.6423035c0.7724457-0.1097031,1.5315247-0.2261581,2.3147202-0.3256607
			c8.4707336-1.0625381,17.8781815-1.3599472,27.8696899-0.2469559c13.0869446,1.4642715,27.1886139,5.3529663,41.5191956,13.119194
			c0,0-10.8287201-10.2942886-34.3364716-17.3660736l1.9285736-2.1970253c0,0,18.8135223-0.4689827,38.6539001,14.341877
			c0,0,19.8403778,35.6479111,19.8403778,79.6178513C201.7857361,157.6274109,190.1535492,177.5336609,159.7161102,178.4596405z"/>
	</g>
	<path fill="#7289DA" d="M367.7814941,59.0360336h-45.7934875v51.4116135l30.5088196,27.3690186v-49.918541h16.3250122
		c10.3656616,0,15.3787842,5.011879,15.3787842,12.960434v38.1922226c0,7.9485626-4.8408508,13.307724-15.3787842,13.307724
		h-46.8338318v29.0324402h45.7934875c24.5440979,0.1695099,47.5229187-12.0964813,47.5229187-40.2635803v-41.13414
		C415.3044128,71.4843521,392.325592,59.0360336,367.7814941,59.0360336z M607.6664429,141.2983856V99.1345062
		c0-15.2132797,27.3017578-18.6667557,35.5960693-3.4587173l25.2345581-10.1961594
		c-9.854248-21.7729454-27.9988403-28.1669617-43.0332031-28.1669617c-24.539978,0-48.7315674,14.1716843-48.7315674,41.8218384
		v42.1638794c0,27.8211823,24.1915894,41.8218384,48.2119751,41.8218384c15.3843384,0,33.8734131-7.6066284,44.0695801-27.4792633
		l-26.9625854-12.443634C635.3153076,160.1346588,607.6664429,155.9881134,607.6664429,141.2983856z M524.1853638,104.8342133
		c-9.506958-2.0753403-15.8955688-5.5300598-16.2414856-11.4060287
		c0.5167847-14.1730576,22.4673767-14.6898651,35.2501526-1.0349884l20.2199097-15.555191
		c-12.6118774-15.3787918-26.9558105-19.5253372-41.8165894-19.5253372c-22.4660034,0-44.2390747,12.6124573-44.2390747,36.6323166
		c0,23.3328552,17.9669495,35.7751083,37.6687012,38.8866806c10.0250854,1.3821259,21.2548828,5.3537903,20.9129639,12.265976
		c-0.8639526,13.1367035-27.8265686,12.443634-40.0925598-2.4171143l-19.5307007,18.3196106
		c11.4058838,14.6897125,26.9624634,22.1200867,41.6523132,22.1200867c22.4607544,0,47.3452759-12.9602966,48.3870239-36.6390686
		C567.7381592,116.4125061,545.9597168,108.8057327,524.1853638,104.8342133z M431.9053345,181.3909454h30.9341125V59.0360336
		h-30.9341125V181.3909454z M952.4770508,59.0360336h-45.793457v51.4116135l30.5088501,27.3690186v-49.918541h16.3277588
		c10.3642578,0,15.3761597,5.011879,15.3761597,12.960434v38.1922226c0,7.9485626-4.8423462,13.307724-15.3761597,13.307724
		h-46.8366089v29.0324402h45.793457C977.0211792,181.5604553,1000,169.2944641,1000,141.1273651v-41.13414
		C1000,71.4843521,977.0211792,59.0360336,952.4770508,59.0360336z M727.9494019,57.3126678
		c-25.40802,0-50.6330566,13.8237-50.6330566,41.9914856v41.8232117c0,27.9922028,25.4000244,41.9928589,50.8041382,41.9928589
		c25.4040527,0,50.6344604-14.0006561,50.6344604-41.9928589V99.3041534
		C778.7549438,71.3079453,753.3522339,57.3126678,727.9494019,57.3126678z M747.8222046,141.1273651
		c0,8.8126526-9.854248,13.3063507-19.7017212,13.3063507c-9.854248,0-19.8728027-4.3228149-19.8728027-13.3063507V99.3041534
		c0-8.9875336,9.6766357-13.8245239,19.3546143-13.8245239c10.0197144,0,20.2199097,4.3188095,20.2199097,13.8245239V141.1273651z
		 M889.5322266,99.3041534c-0.694458-28.6845856-20.2199097-40.2681198-45.4517212-40.2681198h-48.9050293v122.3549118h31.2800293
		v-38.8813019h5.5286865l28.3393555,38.8813019h38.5393677l-33.3512573-41.9928741
		C880.3724365,134.7319794,889.5322266,121.9424286,889.5322266,99.3041534z M844.5973511,115.8957062h-18.1418457V87.8981247
		h18.1418457C864.1281738,87.8981247,864.1281738,115.8957062,844.5973511,115.8957062z"/>
</g>
</svg>
